<svg xmlns="http://www.w3.org/2000/svg" width="297" height="242" fill="none" xmlns:v="https://vecta.io/nano"><path d="M119.027 17.1542L119.264 16.9371L119.491 16.7099L120.365 15.8353L121.595 15.1325L121.638 15.1165L123.295 14.7851H240.23C271.331 18.0874 286.47 47.2415 280.672 72.7641C278.999 78.4357 274.681 87.4807 267.457 94.9069C260.369 102.194 250.918 107.559 238.218 107.477L238.17 107.476H238.122H197.463H182.677V122.262V186.46C182.589 186.667 182.391 187.071 182.011 187.386C181.799 187.562 181.282 187.931 180.13 188.194C179.193 188.408 177.687 188.582 175.459 188.391L140.505 170.513L118.988 159.508V183.677V224.434C118.957 224.504 118.92 224.582 118.876 224.666C118.673 225.05 118.405 225.385 118.072 225.65C117.784 225.88 117.213 226.249 116.069 226.49C115.169 226.68 113.749 226.821 111.68 226.613L25.6126 177.587C20.3425 172.644 17.3185 166.606 15.8536 160.842C14.1934 154.31 14.8637 149.538 15.2574 148.393L15.4608 147.801L15.6135 147.194C16.6042 143.258 20.7363 135.488 27.765 129.849C34.1943 124.691 42.2772 121.828 52.6242 124.811L54.6311 125.389H54.7117L95.7033 145.488L116.998 155.929V132.213L116.998 24.4523L116.998 24.452C116.998 23.8124 117.153 21.9456 117.744 19.9698C118.346 17.9547 118.982 17.2064 119.025 17.1568C119.026 17.1548 119.027 17.1539 119.027 17.1542Z" stroke="url(#A)" stroke-width="29.57"/><defs><linearGradient id="A" x1="276.95" y1="15.297" x2=".068" y2="216.703" gradientUnits="userSpaceOnUse"><stop offset=".141" stop-color="#d3005d"/><stop offset=".594" stop-color="#8402ac"/><stop offset="1" stop-color="#452ad9"/></linearGradient></defs></svg>