<svg xmlns="http://www.w3.org/2000/svg" width="607" height="129" fill="none" xmlns:v="https://vecta.io/nano"><path d="M195.006 40.879c5.595 0 10.203 1.119 13.824 3.357s6.254 5.102 7.9 8.591 2.468 7.208 2.468 11.158c0 3.884-.823 7.538-2.468 10.961s-4.279 6.254-7.9 8.492c-3.621 2.172-8.229 3.258-13.824 3.258h-14.219V110h-9.974V40.879h24.193zm-1.383 37.128c4.411 0 8.13-1.053 11.159-3.16s4.542-5.727 4.542-10.862-1.514-8.722-4.542-10.763c-3.029-2.107-6.748-3.16-11.159-3.16h-12.836v27.945h12.836zM226.6 57.962h10.171V110H226.6V57.962zm5.036-9.48c-1.777 0-3.258-.593-4.443-1.777s-1.778-2.666-1.778-4.443.593-3.259 1.778-4.443 2.666-1.777 4.443-1.777 3.259.625 4.444 1.876c1.185 1.185 1.777 2.633 1.777 4.345a6.24 6.24 0 0 1-1.777 4.444c-1.185 1.185-2.666 1.777-4.444 1.777zm29.796 35.449l-16.787-25.97H256.1l12.145 20.045h.296l12.146-20.045h11.356l-16.787 25.97L291.944 110h-11.356l-12.047-19.946h-.296L256.198 110h-11.454l16.688-26.069zm58.491 26.76c-5.398 0-9.941-1.283-13.627-3.851s-6.419-5.892-8.196-9.973c-1.777-4.147-2.666-8.558-2.666-13.232s.889-9.052 2.666-13.133c1.777-4.147 4.509-7.505 8.196-10.072 3.752-2.567 8.327-3.851 13.725-3.851 7.11 0 12.771 2.337 16.984 7.011 4.214 4.608 6.32 11.323 6.32 20.144v2.864h-37.918v.691c0 2.633.593 5.102 1.778 7.406s2.863 4.18 5.036 5.628c2.172 1.382 4.673 2.074 7.504 2.074 3.094 0 5.76-.757 7.998-2.271 2.239-1.58 3.851-3.687 4.839-6.32h10.072c-1.317 4.871-3.917 8.92-7.801 12.145-3.884 3.16-8.854 4.74-14.91 4.74zm13.429-31.104c-.263-5.332-1.613-9.183-4.049-11.553-2.37-2.436-5.529-3.654-9.479-3.654-4.213 0-7.603 1.382-10.171 4.147-2.501 2.765-3.818 6.451-3.95 11.059h27.649zM352.218 110V35.25h9.183V110h-9.183zm15.335-52.137h12.738l8.887 37.326h.494l10.566-37.325h11.948l10.862 37.326h.493l8.591-37.325h12.738L431.54 110h-16.491l-8.393-31.401h-.691L397.67 110h-16.49l-13.627-52.137zm99.194 52.927c-6.452 0-11.488-2.469-15.108-7.406s-5.431-11.454-5.431-19.551c0-8.229 1.81-14.812 5.431-19.749 3.686-5.003 8.821-7.505 15.404-7.505 4.411 0 7.867 1.02 10.368 3.061 2.502 1.975 4.279 4.081 5.332 6.32h.79v-8.097h13.726V110h-13.726v-8.986h-.79c-1.185 2.436-3.028 4.674-5.529 6.715s-5.991 3.061-10.467 3.061zm5.036-11.059c3.884 0 6.813-1.58 8.788-4.74s2.962-6.945 2.962-11.356-.987-8.163-2.962-11.257c-1.909-3.094-4.838-4.641-8.788-4.641s-6.879 1.547-8.789 4.641-2.863 6.846-2.863 11.257c0 4.477.954 8.295 2.863 11.454 1.91 3.094 4.839 4.641 8.789 4.641zm29.089-41.868h12.935l12.442 38.313h.592l12.245-38.313h12.935L534.642 110h-16.49l-17.28-52.137zm77.709 52.927c-5.464 0-10.072-1.251-13.825-3.752-3.752-2.568-6.55-5.892-8.393-9.974-1.777-4.147-2.666-8.591-2.666-13.33s.889-9.15 2.666-13.232c1.843-4.147 4.641-7.505 8.393-10.072s8.394-3.851 13.923-3.851c7.307 0 13.1 2.337 17.379 7.011 4.345 4.674 6.518 11.421 6.518 20.243v3.752H566.83v.79c0 3.16 1.086 5.892 3.259 8.196 2.172 2.238 4.904 3.357 8.195 3.357 2.568 0 4.74-.592 6.518-1.777s3.061-2.798 3.851-4.838h13.429c-1.383 5.135-4.082 9.348-8.097 12.639-4.016 3.226-9.151 4.839-15.404 4.839zm10.862-32.092c-.132-4.147-1.185-7.208-3.16-9.183s-4.575-2.962-7.801-2.962c-3.423 0-6.122 1.086-8.097 3.259s-3.028 5.135-3.16 8.887h22.218z" fill="#fefefe"/><path d="M54.1696 25.807L54.2774 25.7081L54.3808 25.6047L54.7788 25.2067L55.3385 24.8869L55.358 24.8796L56.1121 24.7288H109.33C123.484 26.2316 130.374 39.4997 127.735 51.1151C126.974 53.6963 125.008 57.8128 121.721 61.1925C118.495 64.5088 114.194 66.9506 108.414 66.9131L108.392 66.913H108.37H89.866H83.1373V73.6417V102.859C83.0971 102.953 83.007 103.137 82.8341 103.28C82.7375 103.36 82.5021 103.528 81.978 103.648C81.5515 103.745 80.8662 103.824 79.8523 103.737L63.9445 95.6013L54.1518 90.5928V101.592V120.141C54.1379 120.173 54.1211 120.208 54.1008 120.246C54.0084 120.421 53.8866 120.574 53.7352 120.694C53.604 120.799 53.3441 120.967 52.8237 121.077C52.4137 121.163 51.7675 121.227 50.8258 121.132L11.6564 98.8206C9.25797 96.5708 7.88174 93.8229 7.21505 91.2C6.45947 88.2272 6.76455 86.0554 6.9437 85.5342L7.03627 85.265L7.10576 84.9888C7.55664 83.1972 9.43718 79.661 12.636 77.0948C15.562 74.7474 19.2405 73.4443 23.9495 74.8018L24.8629 75.0651H24.8995L43.555 84.2123L53.2461 88.9641V78.1707V29.1283V29.1282C53.2461 28.8371 53.3169 27.9875 53.5856 27.0883C53.8595 26.1713 54.1494 25.8307 54.1686 25.8081C54.1694 25.8072 54.1698 25.8068 54.1696 25.807Z" stroke="url(#A)" stroke-width="13.458"/><defs><linearGradient id="A" x1="126.041" y1="24.962" x2=".031" y2="116.623" gradientUnits="userSpaceOnUse"><stop offset=".141" stop-color="#d3005d"/><stop offset=".594" stop-color="#8402ac"/><stop offset="1" stop-color="#452ad9"/></linearGradient></defs></svg>