<svg xmlns="http://www.w3.org/2000/svg" width="465" height="381" fill="none" xmlns:v="https://vecta.io/nano"><path d="M207.027 17.1542L207.264 16.9371L207.491 16.7099L208.365 15.8353L209.595 15.1325L209.638 15.1165L211.295 14.7851H328.23C359.331 18.0874 374.47 47.2415 368.672 72.7641C366.999 78.4357 362.681 87.4807 355.457 94.9069C348.369 102.194 338.918 107.559 326.218 107.477L326.17 107.476H326.122H285.463H270.677V122.262V186.46C270.589 186.667 270.391 187.071 270.011 187.386C269.799 187.562 269.282 187.931 268.13 188.194C267.193 188.408 265.687 188.582 263.459 188.391L228.505 170.513L206.988 159.508V183.677V224.434C206.957 224.504 206.92 224.582 206.876 224.666C206.673 225.05 206.405 225.385 206.072 225.65C205.784 225.88 205.213 226.249 204.069 226.49C203.169 226.68 201.749 226.821 199.68 226.613L113.613 177.587C108.343 172.644 105.319 166.606 103.854 160.842C102.193 154.31 102.864 149.538 103.257 148.393L103.461 147.801L103.613 147.194C104.604 143.258 108.736 135.488 115.765 129.849C122.194 124.691 130.277 121.828 140.624 124.811L142.631 125.389H142.712L183.703 145.488L204.998 155.929V132.213L204.998 24.4523L204.998 24.452C204.998 23.8124 205.153 21.9456 205.744 19.9698C206.346 17.9547 206.982 17.2064 207.025 17.1568C207.026 17.1548 207.027 17.1539 207.027 17.1542Z" stroke="url(#A)" stroke-width="29.57"/><path d="M31.4 292c5.667 0 10.333 1.133 14 3.4s6.333 5.167 8 8.7 2.5 7.3 2.5 11.3c0 3.933-.833 7.633-2.5 11.1s-4.333 6.333-8 8.6c-3.667 2.2-8.333 3.3-14 3.3H17V362H6.9v-70h24.5zM30 329.6c4.467 0 8.233-1.067 11.3-3.2s4.6-5.8 4.6-11-1.533-8.833-4.6-10.9c-3.067-2.133-6.833-3.2-11.3-3.2H17v28.3h13zm35.396-20.3h10.3V362h-10.3v-52.7zm5.1-9.6c-1.8 0-3.3-.6-4.5-1.8s-1.8-2.7-1.8-4.5.6-3.3 1.8-4.5 2.7-1.8 4.5-1.8 3.3.633 4.5 1.9c1.2 1.2 1.8 2.667 1.8 4.4a6.32 6.32 0 0 1-1.8 4.5c-1.2 1.2-2.7 1.8-4.5 1.8zm32.174 35.9l-17-26.3h11.6l12.3 20.3h.3l12.3-20.3h11.5l-17 26.3 16.9 26.4h-11.5l-12.2-20.2h-.3L97.37 362h-11.6l16.9-26.4zm61.235 27.1c-5.467 0-10.067-1.3-13.8-3.9s-6.5-5.967-8.3-10.1c-1.8-4.2-2.7-8.667-2.7-13.4s.9-9.167 2.7-13.3c1.8-4.2 4.566-7.6 8.3-10.2 3.8-2.6 8.433-3.9 13.9-3.9 7.2 0 12.933 2.367 17.2 7.1 4.266 4.667 6.4 11.467 6.4 20.4v2.9h-38.4v.7c0 2.667.6 5.167 1.8 7.5a14.99 14.99 0 0 0 5.1 5.7c2.2 1.4 4.733 2.1 7.6 2.1 3.133 0 5.833-.767 8.1-2.3 2.266-1.6 3.9-3.733 4.9-6.4h10.2a23.65 23.65 0 0 1-7.9 12.3c-3.934 3.2-8.967 4.8-15.1 4.8zm13.6-31.5c-.267-5.4-1.634-9.3-4.1-11.7-2.4-2.467-5.6-3.7-9.6-3.7-4.267 0-7.7 1.4-10.3 4.2-2.534 2.8-3.867 6.533-4 11.2h28zM198.61 362v-75.7h9.3V362h-9.3zm17.531-52.8h12.9l9 37.8h.5l10.7-37.8h12.1l11 37.8h.5l8.7-37.8h12.9l-13.5 52.8h-16.7l-8.5-31.8h-.7l-8.4 31.8h-16.7l-13.8-52.8zm102.454 53.6c-6.533 0-11.633-2.5-15.3-7.5s-5.5-11.6-5.5-19.8c0-8.333 1.834-15 5.5-20 3.734-5.067 8.934-7.6 15.6-7.6 4.467 0 7.967 1.033 10.5 3.1 2.534 2 4.334 4.133 5.4 6.4h.8v-8.2h13.9V362h-13.9v-9.1h-.8c-1.2 2.467-3.066 4.733-5.6 6.8s-6.066 3.1-10.6 3.1zm5.1-11.2c3.934 0 6.9-1.6 8.9-4.8s3-7.033 3-11.5-1-8.267-3-11.4c-1.933-3.133-4.9-4.7-8.9-4.7s-6.966 1.567-8.9 4.7-2.9 6.933-2.9 11.4c0 4.533.967 8.4 2.9 11.6 1.934 3.133 4.9 4.7 8.9 4.7zm31.459-42.4h13.1l12.6 38.8h.6l12.4-38.8h13.1l-17.6 52.8h-16.7l-17.5-52.8zm80.697 53.6c-5.534 0-10.2-1.267-14-3.8-3.8-2.6-6.634-5.967-8.5-10.1-1.8-4.2-2.7-8.7-2.7-13.5s.9-9.267 2.7-13.4a23.88 23.88 0 0 1 8.5-10.2c3.8-2.6 8.5-3.9 14.1-3.9 7.4 0 13.266 2.367 17.6 7.1 4.4 4.733 6.6 11.567 6.6 20.5v3.8h-36.2v.8c0 3.2 1.1 5.967 3.3 8.3 2.2 2.267 4.966 3.4 8.3 3.4 2.6 0 4.8-.6 6.6-1.8s3.1-2.833 3.9-4.9h13.6c-1.4 5.2-4.134 9.467-8.2 12.8-4.067 3.267-9.267 4.9-15.6 4.9zm11-32.5c-.134-4.2-1.2-7.3-3.2-9.3s-4.634-3-7.9-3c-3.467 0-6.2 1.1-8.2 3.3s-3.067 5.2-3.2 9h22.5z" fill="#fff"/><defs><linearGradient id="A" x1="364.95" y1="15.297" x2="88.068" y2="216.703" gradientUnits="userSpaceOnUse"><stop offset=".141" stop-color="#d3005d"/><stop offset=".594" stop-color="#8402ac"/><stop offset="1" stop-color="#452ad9"/></linearGradient></defs></svg>