<svg xmlns="http://www.w3.org/2000/svg" width="992" height="802" fill="none" opacity=".2" stroke="#e0ddd6" stroke-width="4" xmlns:v="https://vecta.io/nano"><path d="M759.66 123.88c8.642 10.477 9.047 26.586 1.382 47.387-7.633 20.711-23.087 45.541-45.169 72.886-44.146 54.667-114.487 119.028-200.575 180.072S343.796 531.355 275.331 556.54c-34.246 12.597-64.139 19.923-87.696 21.328-23.66 1.411-40.321-3.171-48.963-13.648s-9.047-26.586-1.382-47.387c7.633-20.711 23.087-45.541 45.169-72.886 44.146-54.667 114.488-119.027 200.575-180.072s171.502-107.13 239.967-132.314c34.246-12.598 64.139-19.923 87.696-21.329 23.66-1.411 40.321 3.171 48.963 13.648z"/><path d="M813.099 188.665c8.641 10.477 9.047 26.586 1.381 47.387-7.632 20.712-23.087 45.542-45.169 72.887-44.146 54.667-114.487 119.027-200.574 180.071S397.235 596.14 328.77 621.325c-34.247 12.597-64.14 19.923-87.697 21.328-23.659 1.412-40.321-3.17-48.962-13.647s-9.048-26.586-1.382-47.387c7.632-20.711 23.087-45.541 45.169-72.886 44.146-54.668 114.487-119.028 200.574-180.072s171.503-107.13 239.967-132.315c34.247-12.597 64.14-19.923 87.697-21.328 23.659-1.411 40.321 3.171 48.963 13.647z"/><path d="M853.177 237.255c8.641 10.477 9.047 26.586 1.382 47.387-7.633 20.711-23.088 45.541-45.17 72.886-44.146 54.667-114.487 119.028-200.574 180.072S437.313 644.73 368.848 669.915c-34.247 12.597-64.14 19.923-87.697 21.328-23.659 1.411-40.32-3.171-48.962-13.648s-9.048-26.586-1.382-47.387c7.632-20.711 23.087-45.541 45.169-72.886 44.146-54.667 114.487-119.027 200.574-180.072s171.503-107.13 239.967-132.314c34.247-12.598 64.14-19.923 87.697-21.329 23.659-1.411 40.321 3.171 48.963 13.648z"/></svg>