<svg xmlns="http://www.w3.org/2000/svg" width="249" height="16" fill="none" xmlns:v="https://vecta.io/nano"><path fill-rule="evenodd" d="M82.549 1.348C55.09 1.032 27.52 2.187.942 7.038c-.474.086-.671.256-.71.295-.227.23-.252.474-.223.675a.8.8 0 0 0 .77.691c.44.036 3.561-.216 4.765-.28 5.669-.303 11.326-.736 16.98-1.236l38.464-2.996 21.629-1.253c17.34.203 34.636.993 51.609 1.809l-18.086 1.109-25.969 1.719-13.319 1.234c-.492.053-1.611.108-2.153.172-.23.026-.397.068-.471.096a.77.77 0 0 0-.533.739c-.003.114.036.733.826.854 36.747 5.664 75.084-.925 111.963 4.581.433.065.838-.234.903-.668s-.235-.838-.669-.902c-34.733-5.186-70.762.359-105.54-3.712l9.123-.812c8.635-.714 17.271-1.256 25.924-1.716l32.801-1.93 31.719 1.811 13.385.671c1.834.098 6.551.507 7.235.355.532-.119.66-.5.691-.691a.78.78 0 0 0-.228-.71c-.075-.078-.299-.239-.759-.371-12.437-3.562-32.801-3.506-51.873-2.645l-12.309-.645-28.446-1.265c26.921-.665 53.855-.474 80.796.007 11.312.203 41.802 1.424 53.811 2.503a.79.79 0 0 0-.223.589c.02.437.392.776.83.756 2.478-.115 3.91-.262 4.478-.412.353-.093.546-.243.635-.341.219-.236.259-.489.216-.729a.85.85 0 0 0-.25-.464c-.104-.103-.357-.262-.788-.369-4.72-1.174-45.212-2.88-58.68-3.121-35.591-.635-71.169-.764-106.718.911zm108.894 4.911c-6.955-.944-15.108-1.276-23.614-1.254l13.002.727 10.612.527zM49.746 3.398L22.386 5.602l-3.158.272c10.087-1.236 20.28-2.022 30.519-2.476z" fill="url(#A)"/><defs><linearGradient id="A" x1="18.5" y1="-11" x2="170.5" y2="26" gradientUnits="userSpaceOnUse"><stop stop-color="#d84c61"/><stop offset=".49" stop-color="#d11160"/><stop offset="1" stop-color="#be0a70"/></linearGradient></defs></svg>