<svg xmlns="http://www.w3.org/2000/svg" width="216" height="51" fill="none" xmlns:v="https://vecta.io/nano"><mask id="A" maskUnits="userSpaceOnUse" x="0" y="0" width="216" height="51"><path d="M215.45.679H0v49.384h215.45V.679z" fill="#fff"/></mask><g mask="url(#A)"><path d="M105.004 13.825c-4.351 0-8.639 1.868-11.913 5.541V1.255h-6.479v30.491c0 9.901 8.024 17.925 17.923 17.925s17.923-8.024 17.923-17.922-7.554-17.923-17.453-17.923zm-.47 28.942c-6.086 0-11.02-4.934-11.02-11.019s4.934-11.02 11.02-11.02 11.02 4.934 11.02 11.02-4.934 11.02-11.02 11.02z" fill="#fff"/></g><mask id="B" maskUnits="userSpaceOnUse" x="0" y="0" width="216" height="51"><path d="M215.45.679H0v49.384h215.45V.679z" fill="#fff"/></mask><g mask="url(#B)"><path d="M145.147 13.825c-4.351 0-8.64 1.868-11.914 5.541V1.255h-6.479v30.491c0 9.901 8.024 17.925 17.923 17.925s17.922-8.024 17.922-17.922-7.554-17.923-17.452-17.923zm-.47 28.942c-6.086 0-11.02-4.934-11.02-11.019s4.934-11.02 11.02-11.02 11.019 4.934 11.019 11.02-4.934 11.02-11.019 11.02z" fill="#fff"/></g><mask id="C" maskUnits="userSpaceOnUse" x="0" y="0" width="216" height="51"><path d="M215.45.679H0v49.384h215.45V.679z" fill="#fff"/></mask><g mask="url(#C)"><path d="M50.154 34.888v-20.09h6.949v20.027c0 5.117 2.969 8.402 7.96 8.402 5.054 0 7.96-3.159 7.96-8.402V14.798h7.012v20.09c0 9.287-5.623 14.783-14.973 14.783-9.098 0-14.91-5.686-14.91-14.783z" fill="#fff"/></g><mask id="D" maskUnits="userSpaceOnUse" x="0" y="0" width="216" height="51"><path d="M215.45.679H0v49.384h215.45V.679z" fill="#fff"/></mask><g mask="url(#D)"><path d="M175.139 1.255h-6.95v47.594h6.95V1.255z" fill="#fff"/></g><mask id="E" maskUnits="userSpaceOnUse" x="0" y="0" width="216" height="51"><path d="M215.45.679H0v49.384h215.45V.679z" fill="#fff"/></mask><g mask="url(#E)"><path d="M214.478 34.508h-26.597c1.011 5.307 4.738 8.908 11.308 8.908 3.854 0 8.529-1.453 11.562-3.664l2.906 5.117c-3.475 2.59-8.971 4.738-14.72 4.738-12.762 0-18.258-8.908-18.258-17.879 0-5.117 1.579-9.35 4.801-12.699s7.455-5.054 12.572-5.054c4.865 0 8.908 1.516 12.004 4.612s4.675 7.265 4.675 12.572c-.001.948-.064 2.085-.253 3.349zm-26.597-5.686h19.837c-.568-5.37-4.548-8.844-9.666-8.844-5.244 0-9.16 3.538-10.171 8.845z" fill="#fff"/></g><mask id="F" maskUnits="userSpaceOnUse" x="0" y="0" width="216" height="51"><path d="M215.45.679H0v49.384h215.45V.679z" fill="#fff"/></mask><g mask="url(#F)"><path d="M28.09 13.825c-4.351 0-8.64 1.868-11.914 5.541V1.255H9.697v30.491c0 9.901 8.024 17.925 17.923 17.925s17.923-8.024 17.923-17.922-7.554-17.923-17.452-17.923zm-.47 28.942c-6.086 0-11.02-4.934-11.02-11.019s4.934-11.02 11.02-11.02 11.02 4.934 11.02 11.02a11.02 11.02 0 0 1-11.02 11.02z" fill="#fff"/></g><mask id="G" maskUnits="userSpaceOnUse" x="0" y="0" width="216" height="51"><path d="M215.45.679H0v49.384h215.45V.679z" fill="#fff"/></mask><g mask="url(#G)"><path d="M4.987 40.807c-2.448 0-4.432 1.984-4.432 4.432s1.984 4.432 4.432 4.432 4.432-1.984 4.432-4.432-1.984-4.432-4.432-4.432z" fill="#00f"/></g></svg>