<svg xmlns="http://www.w3.org/2000/svg" width="38" height="57" fill="none" xmlns:v="https://vecta.io/nano"><g clip-path="url(#A)"><path d="M19 28.5a9.5 9.5 0 0 1 9.5-9.5 9.5 9.5 0 0 1 9.5 9.5 9.5 9.5 0 0 1-9.5 9.5 9.5 9.5 0 0 1-9.5-9.5z" fill="#1abcfe"/><path d="M0 47.5A9.5 9.5 0 0 1 9.5 38H19v9.5A9.5 9.5 0 0 1 9.5 57 9.5 9.5 0 0 1 0 47.5h0z" fill="#0acf83"/><path d="M19 0v19h9.5A9.5 9.5 0 0 0 38 9.5 9.5 9.5 0 0 0 28.5 0H19z" fill="#ff7262"/><path d="M0 9.5A9.5 9.5 0 0 0 9.5 19H19V0H9.5A9.5 9.5 0 0 0 0 9.5h0z" fill="#f24e1e"/><path d="M0 28.5A9.5 9.5 0 0 0 9.5 38H19V19H9.5A9.5 9.5 0 0 0 0 28.5h0z" fill="#a259ff"/></g><defs><clipPath id="A"><path fill="#fff" d="M0 0h38v57H0z"/></clipPath></defs></svg>