<svg width="118" height="31" viewBox="0 0 118 31" fill="none" xmlns="http://www.w3.org/2000/svg">
<path d="M38.1061 11.7448C38.1061 9.59074 36.0534 7.33172 32.4855 7.33172C28.4843 7.33172 24.0913 10.2975 23.4187 16.217C22.7313 22.1944 26.4102 24.8506 30.1185 24.8506C33.8268 24.8506 35.7686 23.3899 37.7544 21.4418C36.0467 19.2744 33.8415 20.276 33.4189 20.4968C32.7194 20.8892 31.9272 21.0832 31.1268 21.0582C29.6959 21.0582 28.2356 20.4093 28.2356 17.7087C37.4041 16.7932 38.1061 13.8853 38.1061 11.7448ZM33.562 12.0988C33.5032 12.7625 33.2411 13.8988 28.598 14.5355C29.5742 11.0218 31.4464 10.7579 32.3063 10.7579C32.4806 10.7499 32.6545 10.7798 32.8163 10.8455C32.9781 10.9111 33.124 11.0111 33.244 11.1385C33.364 11.266 33.4554 11.418 33.5119 11.5841C33.5683 11.7503 33.5886 11.9267 33.5714 12.1015L33.562 12.0988ZM18.0334 12.675L15.9017 19.4494L14.3973 7.68713C11.0407 7.68713 9.23534 10.1077 8.29389 12.6602L5.69419 19.4642L5.32911 12.7329C5.13119 9.6042 2.29346 7.70059 0 7.70059L2.77354 24.7173C6.29062 24.7038 8.18958 22.2967 9.18319 19.7442L11.3817 13.9593C11.8816 17.5467 12.388 21.1331 12.9009 24.7186C16.434 24.7186 18.3329 22.461 19.3506 19.996L24.2986 7.70194C20.815 7.70194 18.9789 10.1077 18.0307 12.675H18.0334ZM51.0725 7.28998C48.8968 7.28998 47.2345 8.48546 45.8303 10.241V10.2275L47.0847 0C44.1935 0 41.8425 2.53904 41.3905 6.31664L39.2161 24.5854C40.881 24.5854 42.6476 24.098 43.5971 22.8581C44.0562 23.4891 44.6595 23.9995 45.3559 24.3463C46.0523 24.6931 46.8214 24.8661 47.5982 24.8506C52.474 24.8506 55.8186 19.1249 55.8186 13.752C55.7892 8.85164 53.4382 7.30345 51.0872 7.30345L51.0725 7.28998ZM50.6179 16.0716C50.1097 19.067 48.4568 21.1039 46.8667 21.1039C45.2767 21.1039 44.5746 20.381 44.5746 20.381C44.8822 17.7558 45.0721 16.1457 45.6552 14.7577C46.2382 13.3697 47.6263 11.1564 49.0719 11.1564C50.4895 11.1564 51.1314 13.06 50.6192 16.0703L50.6179 16.0716ZM67.9786 7.68848H64.5765L64.5899 7.51077C64.8239 5.26791 65.3495 4.08724 67.0826 3.89472C68.2661 3.77625 68.7917 3.15697 68.9227 2.47846L69.3466 0.102316C62.5264 0.0578894 60.368 3.03716 59.8184 7.58481L59.8051 7.68848H59.7315C58.6215 7.68848 57.3966 8.958 57.1906 10.5668L57.1171 11.1564H59.3958L57.4835 27.123L56.8978 29.9865C56.9713 29.9865 57.0583 30 57.1305 30C60.3266 29.8815 62.3727 27.329 62.8247 23.6241L64.3171 11.1537H65.3869C66.438 11.1537 67.6657 10.0902 67.8796 8.31987L67.9786 7.68848ZM85.6736 7.3923C81.746 7.3923 78.0377 10.3137 76.901 14.9044C75.7643 19.4952 77.4867 24.9246 83.2665 24.9246C89.0463 24.9246 92.3561 19.2703 92.3561 14.5638C92.3614 9.88557 89.2241 7.39095 85.675 7.39095L85.6736 7.3923ZM87.265 15.9222C87.0617 18.0035 86.1551 21.1618 83.673 21.1618C81.191 21.1618 81.5267 17.4731 81.7674 15.7162C82.0308 13.8422 83.0673 11.1712 85.3005 11.1712C87.3091 11.1712 87.4977 13.577 87.2663 15.9235L87.265 15.9222ZM111.764 12.6602L109.633 19.4346C109.575 18.9028 108.129 7.67232 108.129 7.67232C104.773 7.67232 102.976 10.0929 102.034 12.6454L99.4344 19.4494C99.421 18.962 99.0693 12.7181 99.0693 12.7181C98.858 9.58939 96.0229 7.68578 93.7201 7.68578L96.4789 24.7025C99.996 24.689 101.895 22.2819 102.889 19.7294L105.079 13.9445C105.092 14.1801 106.598 24.7038 106.598 24.7038C110.131 24.7038 112.022 22.4461 113.048 19.9812L118 7.68713C114.526 7.68713 112.686 10.0929 111.751 12.6602H111.764ZM71.1908 0.0996248L68.329 23.4303L67.7432 26.3086C67.8154 26.3086 67.9037 26.322 67.9759 26.322C71.0544 26.2776 73.2448 23.5487 73.6554 20.109L75.3043 6.72321C75.8044 2.63462 73.396 0.0969312 71.1908 0.0969312V0.0996248Z" fill="#4353FF"/>
</svg>
