<svg xmlns="http://www.w3.org/2000/svg" width="311" height="76" fill="none" xmlns:v="https://vecta.io/nano"><mask id="A" maskUnits="userSpaceOnUse" x="0" y="0" width="311" height="76"><path d="M311 .594H.473V75.12H311V.594z" fill="#fff"/></mask><g mask="url(#A)"><path d="M136.267 6.801a11.5 11.5 0 0 0-2.933-3.416 7.81 7.81 0 0 0-4.84-1.548 7.99 7.99 0 0 0-4.84 1.521c-1.215.917-2.228 2.074-2.975 3.4L91.695 55.083l12.293 11.783 24.115-40.904 10.304 17.314h-15.402l-6.985 12.088 29.562.062 8.268 13.871h20.028L136.267 6.801zm73.683-4.63v39.798L172.687 4.994a11.11 11.11 0 0 0-3.143-2.289 8.45 8.45 0 0 0-3.564-.787c-1.193-.033-2.378.199-3.47.68a8.06 8.06 0 0 0-2.844 2.1 9.93 9.93 0 0 0-2.203 6.645v25.118l16.303 27.29V29.575l37.1 37.313c2.098 2.094 4.458 3.157 7.029 3.157a7.91 7.91 0 0 0 3.369-.683 7.92 7.92 0 0 0 2.763-2.045c1.478-1.688 2.227-3.948 2.227-6.707V2.171H209.95zm95.971 20.033c-1.499-3.904-3.803-7.45-6.76-10.407a29.85 29.85 0 0 0-10.409-6.759 35.56 35.56 0 0 0-13.154-2.384h-14.686c-4.382-.037-8.731.756-12.818 2.336a30.89 30.89 0 0 0-10.338 6.676 30.14 30.14 0 0 0-6.862 10.415c-1.659 4.229-2.489 8.737-2.446 13.28-.034 4.562.784 9.091 2.413 13.353 1.534 4.011 3.846 7.679 6.805 10.791 2.938 3.052 6.449 5.494 10.333 7.186a31.76 31.76 0 0 0 12.932 2.632h14.677c6.554.103 12.98-1.82 18.399-5.506a31.83 31.83 0 0 0 11.881-15.089 36.59 36.59 0 0 0 2.413-13.353 35.44 35.44 0 0 0-2.38-13.171zm-30.313 30.294h-14.696c-2.154.021-4.29-.401-6.273-1.242a14.78 14.78 0 0 1-4.916-3.4 15.68 15.68 0 0 1-3.252-5.245 18.72 18.72 0 0 1-1.202-6.762 18.27 18.27 0 0 1 1.192-6.743 15.47 15.47 0 0 1 3.242-5.117c1.392-1.434 3.062-2.57 4.907-3.338a16.12 16.12 0 0 1 6.299-1.173h14.697a16.63 16.63 0 0 1 6.439 1.219 14.56 14.56 0 0 1 5.025 3.357 14.55 14.55 0 0 1 3.229 5.108c.817 2.141 1.225 4.416 1.202 6.707a18.7 18.7 0 0 1-1.202 6.762c-.73 1.942-1.844 3.716-3.276 5.217a15.23 15.23 0 0 1-5.007 3.416 16.17 16.17 0 0 1-6.408 1.235z" fill="#0e99e1"/><path d="M69.297 34.043l33.161-31.377H73.312L54.725 20.257l14.463 13.681.109.106zm-.108 3.982L54.726 51.71l18.588 17.586h29.146L69.298 37.92l-.109.105z" fill="#0461bd"/><path d="M32.042 2.666H2.896l35.206 33.318L2.896 69.297h29.146l35.214-33.313L32.042 2.666z" fill="#0e99e1"/></g></svg>