<svg xmlns="http://www.w3.org/2000/svg" width="58" height="58" fill="none" xmlns:v="https://vecta.io/nano"><path d="M46.833 11.6a4.9 4.9 0 0 1-4.309-2.581l-2.14-4.205C39.016 2.175 35.45 0 32.419 0h-6.806c-3.061 0-6.628 2.175-7.995 4.814l-2.14 4.205a4.9 4.9 0 0 1-4.309 2.581C4.719 11.6-.392 16.907.024 23.171l1.545 23.954C1.926 53.099 5.225 58 13.427 58h31.147c8.203 0 11.472-4.901 11.858-10.875l1.545-23.954a10.64 10.64 0 0 0-.637-4.374 10.84 10.84 0 0 0-2.367-3.767 11.16 11.16 0 0 0-3.706-2.538c-1.4-.59-2.91-.893-4.435-.892zm-22.29 3.625h8.916c1.219 0 2.229.986 2.229 2.175s-1.01 2.175-2.229 2.175h-8.916c-1.218 0-2.229-.986-2.229-2.175s1.011-2.175 2.229-2.175zm4.458 31.523c-5.528 0-10.045-4.379-10.045-9.802s4.488-9.802 10.045-9.802 10.045 4.379 10.045 9.802-4.517 9.802-10.045 9.802z" fill="url(#A)"/><defs><linearGradient id="A" x1="6.042" y1="-2.948" x2="53.917" y2="70.648" gradientUnits="userSpaceOnUse"><stop stop-color="#d95662"/><stop offset=".51" stop-color="#d41a5e"/><stop offset="1" stop-color="#bb0872"/></linearGradient></defs></svg>