<svg xmlns="http://www.w3.org/2000/svg" width="58" height="58" fill="none" xmlns:v="https://vecta.io/nano"><path d="M14.5 17.4H5.8A5.82 5.82 0 0 1 0 11.6V5.8A5.82 5.82 0 0 1 5.8 0h8.7a5.82 5.82 0 0 1 5.8 5.8v5.8a5.82 5.82 0 0 1-5.8 5.8zm40.02-2.9H44.08a3.49 3.49 0 0 1-3.48-3.48V6.38a3.49 3.49 0 0 1 3.48-3.48h10.44A3.49 3.49 0 0 1 58 6.38v4.64a3.49 3.49 0 0 1-3.48 3.48zm0 21.75H44.08a3.49 3.49 0 0 1-3.48-3.48v-4.64a3.49 3.49 0 0 1 3.48-3.48h10.44A3.49 3.49 0 0 1 58 28.13v4.64a3.49 3.49 0 0 1-3.48 3.48z" fill="url(#A)"/><path opacity=".96" d="M40.6 32.624c1.189 0 2.175-.986 2.175-2.175s-.986-2.175-2.175-2.175h-7.975v-17.4H40.6c1.189 0 2.175-.986 2.175-2.175s-.986-2.175-2.175-2.175H20.3c-1.189 0-2.175.986-2.175 2.175s.986 2.175 2.175 2.175h7.975v35.525a7.97 7.97 0 0 0 7.975 7.975h4.35c1.189 0 2.175-.986 2.175-2.175s-.986-2.175-2.175-2.175h-4.35c-2.001 0-3.625-1.624-3.625-3.625V32.624H40.6z" fill="url(#B)"/><path d="M54.521 57.999h-10.44a3.49 3.49 0 0 1-3.48-3.48v-4.64a3.49 3.49 0 0 1 3.48-3.48h10.44a3.49 3.49 0 0 1 3.48 3.48v4.64a3.49 3.49 0 0 1-3.48 3.48z" fill="url(#C)"/><defs><linearGradient id="A" x1="-5.8" y1="-.906" x2="49.955" y2="86.99" gradientUnits="userSpaceOnUse"><stop offset=".016" stop-color="#d85061"/><stop offset=".568" stop-color="#cc0f64"/><stop offset=".974" stop-color="#be0970"/></linearGradient><linearGradient id="B" x1="15.66" y1="5.328" x2="81.328" y2="38.66" gradientUnits="userSpaceOnUse"><stop offset=".016" stop-color="#d85061"/><stop offset=".568" stop-color="#cc0f64"/><stop offset=".974" stop-color="#be0970"/></linearGradient><linearGradient id="C" x1="38.861" y1="46.109" x2="57.168" y2="73.167" gradientUnits="userSpaceOnUse"><stop offset=".016" stop-color="#d85061"/><stop offset=".568" stop-color="#cc0f64"/><stop offset=".974" stop-color="#be0970"/></linearGradient></defs></svg>