<svg xmlns="http://www.w3.org/2000/svg" width="50" height="58" fill="none" xmlns:v="https://vecta.io/nano"><path d="M48.696 34.916l-3.285-5.466c-.727-1.192-1.366-3.489-1.366-4.884V19.13C44.045 8.576 35.468 0 24.944 0 14.39.029 5.814 8.576 5.814 19.13v5.407c0 1.396-.64 3.692-1.337 4.884l-3.285 5.466C-.059 37.01-.35 39.423.435 41.516c.785 2.122 2.558 3.809 4.884 4.564 3.14 1.047 6.309 1.803 9.536 2.355.32.058.64.087.959.145l1.279.174c.756.116 1.512.203 2.297.262a58.68 58.68 0 0 0 11.019 0c.669-.058 1.337-.116 1.977-.203a28.95 28.95 0 0 0 1.57-.204c.32-.029.64-.087.959-.145 3.256-.523 6.483-1.337 9.623-2.384 1.086-.363 2.078-.964 2.903-1.758s1.462-1.763 1.865-2.835c.814-2.18.581-4.564-.611-6.57zm-21.63-11.803a2.21 2.21 0 0 1-2.209 2.209 2.21 2.21 0 0 1-2.21-2.209V14.1a2.21 2.21 0 0 1 2.21-2.21 2.21 2.21 0 0 1 2.209 2.21v9.013zm6.047 29.102c-.611 1.692-1.729 3.156-3.201 4.191A8.76 8.76 0 0 1 24.886 58c-2.297 0-4.564-.93-6.163-2.587-.93-.872-1.628-2.035-2.035-3.227.378.058.756.087 1.163.145a44.7 44.7 0 0 0 2.064.233c1.657.145 3.343.233 5.03.233a55.69 55.69 0 0 0 4.942-.233c.611-.058 1.221-.087 1.803-.174l1.425-.175z" fill="url(#A)"/><defs><linearGradient id="A" x1="0" y1="-5.815" x2="66.867" y2="119.198" gradientUnits="userSpaceOnUse"><stop stop-color="#d84961"/><stop offset=".5" stop-color="#bf0a70"/><stop offset="1" stop-color="#d3005d"/></linearGradient></defs></svg>