<svg xmlns="http://www.w3.org/2000/svg" width="58" height="58" fill="none" xmlns:v="https://vecta.io/nano"><path d="M49.139 11.824l-5.73 5.73c-.419.419-.95.615-1.481.615s-1.062-.196-1.481-.615c-.39-.395-.608-.927-.608-1.481s.219-1.087.608-1.481l5.73-5.73c-4.919-4.193-11.265-6.764-18.225-6.764C12.522 2.096 0 14.619 0 30.048S12.522 58 27.952 58s27.952-12.522 27.952-27.952c0-6.96-2.572-13.305-6.764-18.225zM32.843 29.545c1.789.643 4.193 1.929 4.193 6.038 0 3.494-2.767 6.373-6.149 6.373h-.838v.699c0 1.146-.95 2.096-2.096 2.096s-2.096-.95-2.096-2.096v-.699h-.224c-3.718 0-6.764-3.131-6.764-6.988 0-1.174.95-2.124 2.096-2.124s2.096.95 2.096 2.096c0 1.537 1.146 2.795 2.572 2.795h.224V31.53l-2.795-.978c-1.789-.643-4.193-1.929-4.193-6.038 0-3.494 2.767-6.373 6.149-6.373h.838v-.671c0-1.146.95-2.096 2.096-2.096s2.096.95 2.096 2.096v.699h.224c3.718 0 6.764 3.131 6.764 6.988 0 1.146-.95 2.096-2.096 2.096s-2.096-.95-2.096-2.096c0-1.537-1.146-2.795-2.572-2.795h-.224v6.205l2.795.978zM57.832 1.286C57.611.771 57.201.361 56.686.14 56.435.05 56.17.003 55.904 0H44.723c-1.146 0-2.096.95-2.096 2.096s.95 2.096 2.096 2.096h6.121l-4.668 4.668a29.64 29.64 0 0 1 2.963 2.963l4.668-4.668v6.121c0 1.146.95 2.096 2.096 2.096S58 14.423 58 13.277V2.096c0-.28-.056-.531-.168-.811z" fill="url(#A)"/><defs><linearGradient id="A" x1="12.347" y1="3.517" x2="76.089" y2="70.131" gradientUnits="userSpaceOnUse"><stop stop-color="#d84d61"/><stop offset=".474" stop-color="#d3115f"/><stop offset="1" stop-color="#be0970"/></linearGradient></defs></svg>