<svg xmlns="http://www.w3.org/2000/svg" width="58" height="58" fill="none" xmlns:v="https://vecta.io/nano"><path d="M58 41.151C58 51.707 51.707 58 41.151 58H37.7a2.91 2.91 0 0 1-2.9-2.9V38.367c0-.783.638-1.45 1.421-1.45l5.104-.087c.406-.029.754-.319.841-.725l1.015-5.539a.88.88 0 0 0-.201-.708.88.88 0 0 0-.669-.307l-6.177.087c-.812 0-1.45-.638-1.479-1.421l-.116-7.105c0-.464.377-.87.87-.87l6.96-.116c.493 0 .87-.377.87-.87l-.116-6.96c0-.493-.377-.87-.87-.87l-7.83.116a8.69 8.69 0 0 0-6.113 2.647 8.69 8.69 0 0 0-2.442 6.198l.145 7.975c.029.812-.609 1.45-1.421 1.479l-3.48.058c-.493 0-.87.377-.87.87l.087 5.51c0 .493.377.87.87.87l3.48-.058c.812 0 1.45.638 1.479 1.421l.261 16.53c.029 1.624-1.276 2.958-2.9 2.958h-6.67C6.293 58 0 51.707 0 41.122V16.849C0 6.293 6.293 0 16.849 0h24.302C51.707 0 58 6.293 58 16.849v24.302z" fill="url(#A)"/><defs><linearGradient id="A" x1="0" y1="-2.9" x2="72.5" y2="88.45" gradientUnits="userSpaceOnUse"><stop stop-color="#d84d61"/><stop offset=".448" stop-color="#d2115f"/><stop offset="1" stop-color="#bf0a70"/></linearGradient></defs></svg>